<svg width="18" height="9" viewBox="0 0 18 9" fill="none" xmlns="http://www.w3.org/2000/svg">
<path d="M4.86207 6.83216L4.5947 7.25467L4.86207 6.83216ZM17.0509 8.84662C17.3256 8.81853 17.5255 8.57306 17.4974 8.29835C17.4693 8.02364 17.2238 7.82372 16.9491 7.85181L17.0509 8.84662ZM1 0.5C0.515718 0.624381 0.51575 0.624505 0.515786 0.624648C0.515805 0.624719 0.515846 0.624879 0.515882 0.625021C0.515956 0.625306 0.516048 0.625661 0.516158 0.626087C0.516378 0.626938 0.516672 0.628071 0.517039 0.629481C0.517775 0.632302 0.518805 0.636234 0.520132 0.641249C0.522785 0.651278 0.526624 0.665638 0.531657 0.684097C0.541724 0.721011 0.556574 0.774339 0.576283 0.842215C0.615688 0.977926 0.674584 1.17204 0.75357 1.40959C0.911328 1.88404 1.15032 2.53507 1.47577 3.24171C2.11693 4.63388 3.13262 6.32943 4.5947 7.25467L5.12944 6.40965C3.92187 5.64548 3.00653 4.17495 2.38407 2.82339C2.0777 2.15817 1.85174 1.54293 1.70249 1.09407C1.62797 0.869959 1.57285 0.68816 1.53662 0.563371C1.51851 0.500997 1.50513 0.452929 1.49643 0.421009C1.49208 0.40505 1.48889 0.393134 1.48687 0.385491C1.48586 0.38167 1.48514 0.378917 1.48471 0.377262C1.48449 0.376434 1.48435 0.375881 1.48428 0.375606C1.48424 0.375469 1.48423 0.375401 1.48423 0.375403C1.48423 0.375404 1.48424 0.375458 1.48424 0.375458C1.48426 0.37553 1.48428 0.375619 1 0.5ZM4.5947 7.25467C5.6078 7.89578 6.90444 8.30283 8.24687 8.56188C9.59518 8.82207 11.0233 8.93913 12.3221 8.98087C13.6222 9.02265 14.8021 8.98922 15.6567 8.94543C16.0843 8.92352 16.4312 8.89898 16.672 8.87985C16.7924 8.87028 16.8862 8.86206 16.9504 8.85618C16.9825 8.85325 17.0072 8.8509 17.0241 8.84926C17.0325 8.84845 17.039 8.84781 17.0435 8.84736C17.0457 8.84714 17.0475 8.84696 17.0487 8.84684C17.0493 8.84678 17.0498 8.84673 17.0502 8.84669C17.0503 8.84667 17.0505 8.84665 17.0506 8.84664C17.0507 8.84663 17.0509 8.84662 17 8.34921C16.9491 7.85181 16.9492 7.8518 16.9492 7.8518C16.9492 7.8518 16.9491 7.8518 16.9491 7.85181C16.9489 7.85183 16.9486 7.85186 16.9482 7.8519C16.9474 7.85198 16.9461 7.85211 16.9443 7.85229C16.9407 7.85265 16.9351 7.8532 16.9276 7.85393C16.9125 7.8554 16.8896 7.85757 16.8594 7.86034C16.7989 7.86587 16.709 7.87375 16.5927 7.88299C16.3602 7.90147 16.0227 7.92537 15.6055 7.94674C14.7705 7.98952 13.6195 8.02205 12.3542 7.98138C11.0875 7.94067 9.71567 7.82687 8.43634 7.58C7.15114 7.33199 5.99247 6.95579 5.12944 6.40965L4.5947 7.25467Z" fill="#A7A7A7"/>
</svg>
